# xmcd
#
# Track frame offsets:
#	150
#	14022
#	32276
#	52188
#	67641
#	84110
#	99761
#	115515
#	133841
#	149156
#	166722
#	196008
#	213018
#	229054
#	247494
#
# Disc length: 3529 seconds
#
# Revision: 1
# Processed by: cddbd v1.5.2PL0 Copyright (c) Steve Scherf et al.
# Submitted via: audiograbber 1.83.01
#
DISCID=bf0dc70f
DTITLE=ALISON KRAUSS - CDG90158
DYEAR=1900
DGENRE=Country
TTITLE0=I'VE GOT THAT OLD FEELING
TTITLE1=BABY, NOW THAT IV'E FOUND YOU
TTITLE2=WHEN YOU SAY NOTHING AT ALL
TTITLE3=EVERY TIME YOU SAY GOODBYE
TTITLE4=FORGET ABOUT IT
TTITLE5=THE LUCKY ONE
TTITLE6=I DON'T BELIEVE YOU'VE MET MY BABY
TTITLE7=MAYBE
TTITLE8=SITTING AT THE WINDOW OF MY ROOM
TTITLE9=TEARDROPS WILL KISS THE MORNING DEW
TTITLE10=WILL THERE BE ANY STARTS IN MY CROWN
TTITLE11=IN THE PALM OF YOUR HAND
TTITLE12=LET ME TOUCH YOU FOR A WHILE
TTITLE13=NEW FAVORITE
TTITLE14=TWO HIGHWAYS
EXTD=
EXTT0=
EXTT1=
EXTT2=
EXTT3=
EXTT4=
EXTT5=
EXTT6=
EXTT7=
EXTT8=
EXTT9=
EXTT10=
EXTT11=
EXTT12=
EXTT13=
EXTT14=
PLAYORDER=
